#!OML:ASF H:\BreakDance\Project 1\Capture day 1\Session 1\Male.ASF
:FULLY-SPECIFIED
:DEGREES
533
root 24.7864 7.77638 -11.1332 -160.804 183.563 -111.728
lowerback 11.9692 -7.67801 -6.98602
upperback 4.2982 -10.9447 -1.57735
thorax -1.10607 -5.46879 3.47964
lowerneck 0.490774 -17.1199 1.4416
upperneck -1.18546 -22.4196 21.1308
head 1.88795 -11.0383 5.39548
rclavicle -1.17681e-013 -1.59028e-015
rhumerus -14.7454 -57.6957 -82.5438
rradius 60.4576
rwrist -31.8551
rhand -53.0994 457.219
rfingers 7.12502
rthumb -25.5609 125.524
lclavicle -1.17681e-013 -1.59028e-015
lhumerus 58.2726 -57.5929 34.233
lradius 43.7067
lwrist 9.05191
lhand -46.3205 -404.19
lfingers 7.12502
lthumb -19.054 -15.1034
rfemur -68.1193 -21.0136 30.9957
rtibia 80.6154
rfoot -8.83608 16.3572
rtoes 43.9484
lfemur -63.1809 23.5587 -9.52642
ltibia 89.8815
lfoot -24.7919 -12.5736
ltoes -26.2213
534
root 24.9086 7.80771 -11.0788 -161.345 185.745 -112.439
lowerback 12.6621 -7.42936 -6.95877
upperback 4.57271 -10.6584 -1.8499
thorax -1.27806 -5.31939 3.24602
lowerneck 0.242377 -16.988 1.70932
upperneck -1.98495 -22.1468 21.7261
head 1.70569 -10.9822 5.55953
rclavicle 3.49861e-014 -1.11319e-014
rhumerus -11.9116 -57.0398 -84.8175
rradius 59.7949
rwrist -31.251
rhand -53.0858 457.996
rfingers 7.12502
rthumb -25.5479 126.303
lclavicle 3.49861e-014 -1.11319e-014
lhumerus 61.5452 -58.5725 33.5114
lradius 42.1493
lwrist 9.16068
lhand -46.2994 -403.962
lfingers 7.12502
lthumb -19.0336 -14.873
rfemur -67.7252 -20.5571 31.487
rtibia 81.1806
rfoot -8.90235 16.0226
rtoes 45.9596
lfemur -64.9843 24.6131 -10.9345
ltibia 90.6869
lfoot -25.3728 -13.057
ltoes -28.238
535
root 25.0263 7.83823 -11.0182 -162.054 188.474 -113.002
lowerback 13.4901 -7.01738 -7.22933
upperback 4.81452 -10.2153 -2.20322
thorax -1.52957 -5.09148 3.08461
lowerneck 0.00981316 -16.8601 1.9588
upperneck -2.69277 -21.8904 22.141
head 1.52973 -10.9305 5.6734
rclavicle 3.49861e-014 -1.90833e-014
rhumerus -9.35364 -56.1176 -86.8144
rradius 59.2395
rwrist -30.7794
rhand -53.1148 459.173
rfingers 7.12502
rthumb -25.5757 127.476
lclavicle 3.49861e-014 -1.90833e-014
lhumerus 63.825 -59.2652 33.6002
lradius 40.732
lwrist 9.09706
lhand -46.2422 -403.834
lfingers 7.12502
lthumb -18.9786 -14.7403
rfemur -67.0823 -19.9821 31.7577
rtibia 81.6461
rfoot -8.96072 15.5806
rtoes 48.0162
lfemur -66.3526 25.9622 -12.3929
ltibia 91.4577
lfoot -25.9397 -13.555
ltoes -30.1565
536
root 25.1404 7.86744 -10.9524 -162.907 191.67 -113.463
lowerback 14.4128 -6.45737 -7.68237
upperback 5.02162 -9.62733 -2.63514
thorax -1.86233 -4.78965 2.92602
lowerneck -0.173055 -16.7559 2.23001
upperneck -3.34718 -21.6669 22.4223
head 1.34623 -10.895 5.74895
rclavicle -9.54166e-015 -5.24792e-014
rhumerus -7.17038 -54.951 -88.4849
rradius 58.7816
rwrist -30.436
rhand -53.2096 460.425
rfingers 7.12502
rthumb -25.6665 128.715
lclavicle -9.54166e-015 -5.24792e-014
lhumerus 65.2824 -59.7457 34.3142
lradius 39.4382
lwrist 8.94151
lhand -46.0527 -403.845
lfingers 7.12502
lthumb -18.7964 -14.7327
rfemur -66.1865 -19.1838 31.7879
rtibia 82.0487
rfoot -9.05457 15.1517
rtoes 50.018
lfemur -67.373 27.6135 -13.7903
ltibia 92.2469
lfoot -26.4817 -14.0598
ltoes -31.8437
537
root 25.2491 7.89584 -10.8831 -163.885 195.252 -113.853
lowerback 15.4024 -5.77908 -8.24589
upperback 5.19158 -8.92884 -3.12067
thorax -2.27027 -4.43006 2.75027
lowerneck -0.299669 -16.6574 2.46445
upperneck -3.94319 -21.4565 22.641
head 1.16869 -10.8645 5.81359
rclavicle 3.18055e-015 2.38542e-014
rhumerus -5.34953 -53.5697 -89.8923
rradius 58.4833
rwrist -30.1542
rhand -53.3208 461.588
rfingers 7.12502
rthumb -25.773 129.862
lclavicle 3.18055e-015 2.38542e-014
lhumerus 66.0521 -60.0231 35.5222
lradius 38.2238
lwrist 8.90416
lhand -45.9152 -403.825
lfingers 7.12502
lthumb -18.6641 -14.7007
rfemur -65.0343 -18.1556 31.5931
rtibia 82.3484
rfoot -9.13464 14.9329
rtoes 51.5314
lfemur -68.113 29.5577 -15.0519
ltibia 93.0789
lfoot -26.9979 -14.5598
ltoes -33.317
538
root 25.3531 7.92482 -10.8115 -164.983 199.102 -114.116
lowerback 16.4588 -5.02626 -8.94361
upperback 5.32341 -8.18584 -3.61508
thorax -2.739 -4.04545 2.61729
lowerneck -0.384659 -16.5322 2.60399
upperneck -4.51891 -21.214 22.8439
head 0.995541 -10.8194 5.88982
rclavicle -1.59028e-014 -6.20208e-014
rhumerus -3.75856 -51.9995 -91.1608
rradius 58.3747
rwrist -29.8174
rhand -53.4111 462.611
rfingers 7.12502
rthumb -25.8595 130.872
lclavicle -1.59028e-014 -6.20208e-014
lhumerus 66.2165 -60.0462 37.1772
lradius 37.0315
lwrist 9.20809
lhand -45.9151 -403.61
lfingers 7.12502
lthumb -18.6641 -14.4853
rfemur -63.678 -16.9443 31.1339
rtibia 82.5226
rfoot -9.0991 15.023
rtoes 52.4486
lfemur -68.6578 31.6948 -16.1993
ltibia 93.9669
lfoot -27.4723 -15.0446
ltoes -34.634
539
root 25.448 7.95764 -10.7387 -166.259 203.191 -114.219
lowerback 17.6553 -4.1804 -9.84417
upperback 5.42201 -7.40024 -4.07398
thorax -3.29077 -3.63474 2.61168
lowerneck -0.424227 -16.363 2.61041
upperneck -5.1299 -20.9071 23.0605
head 0.813824 -10.7488 5.9952
rclavicle 2.54444e-014 3.49861e-014
rhumerus -2.29528 -50.283 -92.3186
rradius 58.43
rwrist -29.3447
rhand -53.5021 463.48
rfingers 7.12502
rthumb -25.9467 131.729
lclavicle 2.54444e-014 3.49861e-014
lhumerus 65.8845 -59.7903 39.2105
lradius 35.8221
lwrist 10.0361
lhand -46.4224 -403.738
lfingers 7.12502
lthumb -19.1519 -14.6609
rfemur -61.846 -14.9935 30.313
rtibia 82.2604
rfoot -8.93018 14.8094
rtoes 53.1707
lfemur -68.9408 33.9987 -17.2143
ltibia 94.8656
lfoot -27.9156 -15.4969
ltoes -35.8752
540
root 25.5349 7.99493 -10.6663 -167.791 207.442 -114.073
lowerback 19.0318 -3.22978 -10.9987
upperback 5.48596 -6.58732 -4.48544
thorax -3.94777 -3.20212 2.7723
lowerneck -0.35487 -16.146 2.42733
upperneck -5.82409 -20.5153 23.3558
head 0.609765 -10.6496 6.16426
rclavicle 1.08139e-013 2.38542e-014
rhumerus -0.960091 -48.4579 -93.3019
rradius 58.6551
rwrist -28.7371
rhand -53.5154 464.409
rfingers 7.12502
rthumb -25.9594 132.656
lclavicle 1.08139e-013 2.38542e-014
lhumerus 65.1551 -59.2832 41.53
lradius 34.5977
lwrist 11.4682
lhand -47.4583 -404.853
lfingers 7.12502
lthumb -20.1478 -15.8773
rfemur -59.6122 -12.5173 29.1918
rtibia 81.5883
rfoot -8.58421 14.3685
rtoes 53.6221
lfemur -68.9432 36.4023 -18.1181
ltibia 95.7516
lfoot -28.2853 -16.0134
ltoes -36.9288
541
root 25.6159 8.03753 -10.5934 -169.667 211.751 -113.534
lowerback 20.5619 -2.19511 -12.4397
upperback 5.53976 -5.79981 -4.87929
thorax -4.67361 -2.773 3.0836
lowerneck -0.240392 -15.8788 2.23374
upperneck -6.62591 -20.0325 23.6219
head 0.353107 -10.5194 6.34293
rclavicle 2.22639e-014 1.19271e-013
rhumerus 0.336204 -46.5307 -94.1754
rradius 58.9921
rwrist -28.0411
rhand -53.5502 465.436
rfingers 7.12502
rthumb -25.9927 133.678
lclavicle 2.22639e-014 1.19271e-013
lhumerus 64.2584 -58.5334 43.7743
lradius 33.4104
lwrist 13.3156
lhand -49.0755 -407.849
lfingers 7.12502
lthumb -21.7016 -19.0454
rfemur -57.0436 -9.55653 27.746
rtibia 80.526
rfoot -8.074 13.5945
rtoes 54.0279
lfemur -68.6838 38.7901 -18.9916
ltibia 96.6046
lfoot -28.5142 -16.6503
ltoes -37.6261
542
root 25.6965 8.0855 -10.5187 -171.97 215.978 -112.518
lowerback 22.2306 -1.09087 -14.1068
upperback 5.5849 -5.06594 -5.24357
thorax -5.46717 -2.35848 3.52501
lowerneck -0.0637177 -15.5719 2.01902
upperneck -7.53035 -19.4725 23.8425
head 0.0428942 -10.3634 6.52809
rclavicle -1.11319e-013 3.18055e-015
rhumerus 1.60363 -44.5248 -94.8701
rradius 59.4158
rwrist -27.3578
rhand -53.658 466.548
rfingers 7.12502
rthumb -26.0959 134.776
lclavicle -1.11319e-013 3.18055e-015
lhumerus 63.4474 -57.6332 45.5893
lradius 32.4105
lwrist 15.3505
lhand -51.0657 -413.173
lfingers 7.12502
lthumb -23.6116 -24.603
rfemur -54.3521 -6.4031 26.0709
rtibia 79.3265
rfoot -7.54199 12.5518
rtoes 54.4144
lfemur -68.2304 41.0413 -19.8585
ltibia 97.4482
lfoot -28.6185 -17.5427
ltoes -37.8283
